<?xml version="1.0" encoding="UTF-8" standalone="no"?><!-- Generator: Gravit.io --><svg xmlns="http://www.w3.org/2000/svg" xmlns:xlink="http://www.w3.org/1999/xlink" style="isolation:isolate" viewBox="0 0 240 240" width="240pt" height="240pt"><defs><clipPath id="_clipPath_Tj63FDIHZ1Jy5egJTzlMRmDIaVuULan3"><rect width="240" height="240"/></clipPath></defs><g clip-path="url(#_clipPath_Tj63FDIHZ1Jy5egJTzlMRmDIaVuULan3)"><rect width="240" height="240" style="fill:rgb(0,0,0)" fill-opacity="0"/><g><rect x="208.5" y="223.5" width="30" height="3" transform="matrix(1,0,0,1,0,0)" fill="rgb(255,255,255)"/><rect x="-15.75" y="-3.75" width="31.5" height="3" transform="matrix(0,1,-1,0,-2.25,-2.25)" fill="rgb(255,255,255)"/><rect x="224.25" y="237.75" width="31.5" height="3" transform="matrix(0,1,-1,0,479.25,-0.75)" fill="rgb(255,255,255)"/><rect x="178.5" y="193.5" width="30" height="3" transform="matrix(1,0,0,1,0,0)" fill="rgb(255,255,255)"/><rect x="195" y="207" width="30" height="3" transform="matrix(0,1,-1,0,418.5,-1.5)" fill="rgb(255,255,255)"/><rect x="148.5" y="163.5" width="30" height="3" transform="matrix(1,0,0,1,0,0)" fill="rgb(255,255,255)"/><rect x="118.5" y="133.5" width="30" height="3" transform="matrix(1,0,0,1,0,0)" fill="rgb(255,255,255)"/><rect x="135" y="147" width="30" height="3" transform="matrix(0,1,-1,0,298.5,-1.5)" fill="rgb(255,255,255)"/><rect x="88.5" y="103.5" width="30" height="3" transform="matrix(1,0,0,1,0,0)" fill="rgb(255,255,255)"/><rect x="105" y="117" width="30" height="3" transform="matrix(0,1,-1,0,238.5,-1.5)" fill="rgb(255,255,255)"/><rect x="58.5" y="73.5" width="30" height="3" transform="matrix(1,0,0,1,0,0)" fill="rgb(255,255,255)"/><rect x="75" y="87" width="30" height="3" transform="matrix(0,1,-1,0,178.5,-1.5)" fill="rgb(255,255,255)"/><rect x="28.5" y="43.5" width="30" height="3" transform="matrix(1,0,0,1,0,0)" fill="rgb(255,255,255)"/><rect x="-1.5" y="13.5" width="30" height="3" transform="matrix(1,0,0,1,0,0)" fill="rgb(255,255,255)"/><rect x="238.5" y="255" width="30" height="3" transform="matrix(1,0,0,1,0,0)" fill="rgb(255,255,255)"/><rect x="45" y="57" width="30" height="3" transform="matrix(0,1,-1,0,118.5,-1.5)" fill="rgb(255,255,255)"/><rect x="15" y="27" width="30" height="3" transform="matrix(0,1,-1,0,58.5,-1.5)" fill="rgb(255,255,255)"/><rect x="165" y="177" width="30" height="3" transform="matrix(0,1,-1,0,358.5,-1.5)" fill="rgb(255,255,255)"/></g></g></svg>