<?xml version="1.0" encoding="UTF-8" standalone="no"?><!-- Generator: Gravit.io --><svg xmlns="http://www.w3.org/2000/svg" xmlns:xlink="http://www.w3.org/1999/xlink" style="isolation:isolate" viewBox="0 0 240 240" width="240pt" height="240pt"><defs><clipPath id="_clipPath_cGPCGtl0IfJMAdvPrDIToo1andSUCkBc"><rect width="240" height="240"/></clipPath></defs><g clip-path="url(#_clipPath_cGPCGtl0IfJMAdvPrDIToo1andSUCkBc)"><rect width="240" height="240" style="fill:rgb(0,0,0)" fill-opacity="0"/><g><rect x="208.5" y="223.5" width="30" height="3" transform="matrix(1,0,0,1,0,0)" fill="rgb(255,255,255)"/><rect x="-15.75" y="-3.75" width="31.5" height="3" transform="matrix(0,1,-1,0,-2.25,-2.25)" fill="rgb(255,255,255)"/><rect x="224.25" y="237.75" width="31.5" height="3" transform="matrix(0,1,-1,0,479.25,-0.75)" fill="rgb(255,255,255)"/><rect x="178.5" y="193.5" width="30" height="3" transform="matrix(1,0,0,1,0,0)" fill="rgb(255,255,255)"/><rect x="195" y="207" width="30" height="3" transform="matrix(0,1,-1,0,418.5,-1.5)" fill="rgb(255,255,255)"/><rect x="148.5" y="163.5" width="30" height="3" transform="matrix(1,0,0,1,0,0)" fill="rgb(255,255,255)"/><rect x="118.5" y="133.5" width="30" height="3" transform="matrix(1,0,0,1,0,0)" fill="rgb(255,255,255)"/><rect x="135" y="147" width="30" height="3" transform="matrix(0,1,-1,0,298.5,-1.5)" fill="rgb(255,255,255)"/><rect x="88.5" y="103.5" width="30" height="3" transform="matrix(1,0,0,1,0,0)" fill="rgb(255,255,255)"/><rect x="105" y="117" width="30" height="3" transform="matrix(0,1,-1,0,238.5,-1.5)" fill="rgb(255,255,255)"/><rect x="58.5" y="73.5" width="30" height="3" transform="matrix(1,0,0,1,0,0)" fill="rgb(255,255,255)"/><rect x="75" y="87" width="30" height="3" transform="matrix(0,1,-1,0,178.5,-1.5)" fill="rgb(255,255,255)"/><rect x="28.5" y="43.5" width="30" height="3" transform="matrix(1,0,0,1,0,0)" fill="rgb(255,255,255)"/><rect x="-1.5" y="13.5" width="30" height="3" transform="matrix(1,0,0,1,0,0)" fill="rgb(255,255,255)"/><rect x="238.5" y="255" width="30" height="3" transform="matrix(1,0,0,1,0,0)" fill="rgb(255,255,255)"/><rect x="45" y="57" width="30" height="3" transform="matrix(0,1,-1,0,118.5,-1.5)" fill="rgb(255,255,255)"/><rect x="15" y="27" width="30" height="3" transform="matrix(0,1,-1,0,58.5,-1.5)" fill="rgb(255,255,255)"/><rect x="165" y="177" width="30" height="3" transform="matrix(0,1,-1,0,358.5,-1.5)" fill="rgb(255,255,255)"/></g><line x1="30" y1="15" x2="0" y2="45" vector-effect="non-scaling-stroke" stroke-width="1" stroke-dasharray="8,3,5,6" stroke="rgb(255,255,255)" stroke-linejoin="miter" stroke-linecap="square" stroke-miterlimit="3"/><line x1="60" y1="45" x2="-0.375" y2="105.375" vector-effect="non-scaling-stroke" stroke-width="1" stroke-dasharray="8,3,5,6" stroke="rgb(255,255,255)" stroke-linejoin="miter" stroke-linecap="square" stroke-miterlimit="3"/><line x1="90" y1="75.188" x2="0" y2="165.188" vector-effect="non-scaling-stroke" stroke-width="1" stroke-dasharray="8,3,5,6" stroke="rgb(255,255,255)" stroke-linejoin="miter" stroke-linecap="square" stroke-miterlimit="3"/><line x1="120" y1="105.375" x2="0" y2="225.375" vector-effect="non-scaling-stroke" stroke-width="1" stroke-dasharray="8,3,5,6" stroke="rgb(255,255,255)" stroke-linejoin="miter" stroke-linecap="square" stroke-miterlimit="3"/><line x1="150" y1="135" x2="45" y2="240" vector-effect="non-scaling-stroke" stroke-width="1" stroke-dasharray="8,3,5,6" stroke="rgb(255,255,255)" stroke-linejoin="miter" stroke-linecap="square" stroke-miterlimit="3"/><line x1="180" y1="165.188" x2="105" y2="240.188" vector-effect="non-scaling-stroke" stroke-width="1" stroke-dasharray="8,3,5,6" stroke="rgb(255,255,255)" stroke-linejoin="miter" stroke-linecap="square" stroke-miterlimit="3"/><line x1="210" y1="195" x2="165" y2="240" vector-effect="non-scaling-stroke" stroke-width="1" stroke-dasharray="8,3,5,6" stroke="rgb(255,255,255)" stroke-linejoin="miter" stroke-linecap="square" stroke-miterlimit="3"/><line x1="240" y1="225.375" x2="225" y2="240.375" vector-effect="non-scaling-stroke" stroke-width="1" stroke-dasharray="8,3,5,6" stroke="rgb(255,255,255)" stroke-linejoin="miter" stroke-linecap="square" stroke-miterlimit="3"/><line x1="210" y1="225.375" x2="195" y2="240.375" vector-effect="non-scaling-stroke" stroke-width="1" stroke-dasharray="8,3,5,6" stroke="rgb(255,255,255)" stroke-linejoin="miter" stroke-linecap="square" stroke-miterlimit="3"/><line x1="180" y1="195" x2="135" y2="240" vector-effect="non-scaling-stroke" stroke-width="1" stroke-dasharray="8,3,5,6" stroke="rgb(255,255,255)" stroke-linejoin="miter" stroke-linecap="square" stroke-miterlimit="3"/><line x1="120" y1="135" x2="15" y2="240" vector-effect="non-scaling-stroke" stroke-width="1" stroke-dasharray="8,3,5,6" stroke="rgb(255,255,255)" stroke-linejoin="miter" stroke-linecap="square" stroke-miterlimit="3"/><line x1="150" y1="165.188" x2="75" y2="240.188" vector-effect="non-scaling-stroke" stroke-width="1" stroke-dasharray="8,3,5,6" stroke="rgb(255,255,255)" stroke-linejoin="miter" stroke-linecap="square" stroke-miterlimit="3"/><line x1="90" y1="105.375" x2="0" y2="195.375" vector-effect="non-scaling-stroke" stroke-width="1" stroke-dasharray="8,3,5,6" stroke="rgb(255,255,255)" stroke-linejoin="miter" stroke-linecap="square" stroke-miterlimit="3"/><line x1="60" y1="75.188" x2="0" y2="135.188" vector-effect="non-scaling-stroke" stroke-width="1" stroke-dasharray="8,3,5,6" stroke="rgb(255,255,255)" stroke-linejoin="miter" stroke-linecap="square" stroke-miterlimit="3"/><line x1="29.813" y1="45" x2="0" y2="74.813" vector-effect="non-scaling-stroke" stroke-width="1" stroke-dasharray="8,3,5,6" stroke="rgb(255,255,255)" stroke-linejoin="miter" stroke-linecap="square" stroke-miterlimit="3"/></g></svg>