<?xml version="1.0" encoding="UTF-8" standalone="no"?><!-- Generator: Gravit.io --><svg xmlns="http://www.w3.org/2000/svg" xmlns:xlink="http://www.w3.org/1999/xlink" style="isolation:isolate" viewBox="0 0 300 300" width="300pt" height="300pt"><defs><clipPath id="_clipPath_Jm2LQrBdEIBD9pwZbfKrJD2CdZ9oYG3D"><rect width="300" height="300"/></clipPath></defs><g clip-path="url(#_clipPath_Jm2LQrBdEIBD9pwZbfKrJD2CdZ9oYG3D)"><rect width="300" height="300" style="fill:rgb(0,0,0)" fill-opacity="0"/><path d=" M 7.5 7.5 L 31.5 7.5 M 31.5 31 L 55 31 M 55 55 L 79 55 M 79 78.5 L 102.5 78.5 M 102.5 102.5 L 126.5 102.5 M 126.5 126 L 150 126 M 150 150 L 174 150 M 174 173.5 L 197.5 173.5 M 197.5 197.5 L 221.5 197.5 M 221.5 221 L 245 221 M 245 245 L 269 245 M 269 268.5 L 292.5 268.5 M 292.5 292.5 L 292.5 268.5 M 269 268.5 L 269 245 M 245 245 L 245 221 M 221.5 221 L 221.5 197.5 M 197.5 197.5 L 197.5 173.5 M 174 173.5 L 174 150 M 150 150 L 150 126 M 126.5 126 L 126.5 102.5 M 102.5 102.5 L 102.5 78.5 M 79 78.5 L 79 55 M 55 55 L 55 31 M 31.5 31 L 31.5 7.5" fill-rule="evenodd" fill="none" vector-effect="non-scaling-stroke" stroke-width="5" stroke="rgb(255,255,255)" stroke-linejoin="miter" stroke-linecap="square" stroke-miterlimit="3"/></g></svg>